<svg width="1920" height="1080" xmlns="http://www.w3.org/2000/svg" xmlns:xlink="http://www.w3.org/1999/xlink" version="1.1" baseProfile="full" viewBox="0 0 1920 1080">
<rect width="1920" height="1080" x="0" y="0" fill="#100C2A"></rect>
<path d="M192.5 60L192.5 1010" fill="transparent" stroke="#484753" class="zr0-cls-0"></path>
<path d="M384.5 60L384.5 1010" fill="transparent" stroke="#484753" class="zr0-cls-0"></path>
<path d="M576.5 60L576.5 1010" fill="transparent" stroke="#484753" class="zr0-cls-0"></path>
<path d="M768.5 60L768.5 1010" fill="transparent" stroke="#484753" class="zr0-cls-0"></path>
<path d="M960.5 60L960.5 1010" fill="transparent" stroke="#484753" class="zr0-cls-0"></path>
<path d="M1152.5 60L1152.5 1010" fill="transparent" stroke="#484753" class="zr0-cls-0"></path>
<path d="M1344.5 60L1344.5 1010" fill="transparent" stroke="#484753" class="zr0-cls-0"></path>
<path d="M1536.5 60L1536.5 1010" fill="transparent" stroke="#484753" class="zr0-cls-0"></path>
<path d="M1728.5 60L1728.5 1010" fill="transparent" stroke="#484753" class="zr0-cls-0"></path>
<path d="M192.5 1010L192.5 60" fill="transparent" stroke="#B9B8CE" stroke-linecap="round" class="zr0-cls-0"></path>
<path d="M192 1010.5L187 1010.5" fill="transparent" stroke="#B9B8CE" class="zr0-cls-0"></path>
<path d="M192 950.5L187 950.5" fill="transparent" stroke="#B9B8CE" class="zr0-cls-0"></path>
<path d="M192 891.5L187 891.5" fill="transparent" stroke="#B9B8CE" class="zr0-cls-0"></path>
<path d="M192 832.5L187 832.5" fill="transparent" stroke="#B9B8CE" class="zr0-cls-0"></path>
<path d="M192 772.5L187 772.5" fill="transparent" stroke="#B9B8CE" class="zr0-cls-0"></path>
<path d="M192 713.5L187 713.5" fill="transparent" stroke="#B9B8CE" class="zr0-cls-0"></path>
<path d="M192 654.5L187 654.5" fill="transparent" stroke="#B9B8CE" class="zr0-cls-0"></path>
<path d="M192 594.5L187 594.5" fill="transparent" stroke="#B9B8CE" class="zr0-cls-0"></path>
<path d="M192 535.5L187 535.5" fill="transparent" stroke="#B9B8CE" class="zr0-cls-0"></path>
<path d="M192 475.5L187 475.5" fill="transparent" stroke="#B9B8CE" class="zr0-cls-0"></path>
<path d="M192 416.5L187 416.5" fill="transparent" stroke="#B9B8CE" class="zr0-cls-0"></path>
<path d="M192 357.5L187 357.5" fill="transparent" stroke="#B9B8CE" class="zr0-cls-0"></path>
<path d="M192 297.5L187 297.5" fill="transparent" stroke="#B9B8CE" class="zr0-cls-0"></path>
<path d="M192 238.5L187 238.5" fill="transparent" stroke="#B9B8CE" class="zr0-cls-0"></path>
<path d="M192 179.5L187 179.5" fill="transparent" stroke="#B9B8CE" class="zr0-cls-0"></path>
<path d="M192 119.5L187 119.5" fill="transparent" stroke="#B9B8CE" class="zr0-cls-0"></path>
<path d="M192 60.5L187 60.5" fill="transparent" stroke="#B9B8CE" class="zr0-cls-0"></path>
<text dominant-baseline="central" text-anchor="end" style="font-size:12px;font-family:sans-serif;" transform="translate(184 980.3125)" fill="#B9B8CE">2025::1_0</text>
<text dominant-baseline="central" text-anchor="end" style="font-size:12px;font-family:sans-serif;" transform="translate(184 920.9375)" fill="#B9B8CE">2025::1_1</text>
<text dominant-baseline="central" text-anchor="end" style="font-size:12px;font-family:sans-serif;" transform="translate(184 861.5625)" fill="#B9B8CE">2025::2_0</text>
<text dominant-baseline="central" text-anchor="end" style="font-size:12px;font-family:sans-serif;" transform="translate(184 802.1875)" fill="#B9B8CE">2025::2_1</text>
<text dominant-baseline="central" text-anchor="end" style="font-size:12px;font-family:sans-serif;" transform="translate(184 742.8125)" fill="#B9B8CE">2025::3_0</text>
<text dominant-baseline="central" text-anchor="end" style="font-size:12px;font-family:sans-serif;" transform="translate(184 683.4375)" fill="#B9B8CE">2025::3_1</text>
<text dominant-baseline="central" text-anchor="end" style="font-size:12px;font-family:sans-serif;" transform="translate(184 624.0625)" fill="#B9B8CE">2025::4_0</text>
<text dominant-baseline="central" text-anchor="end" style="font-size:12px;font-family:sans-serif;" transform="translate(184 564.6875)" fill="#B9B8CE">2025::4_1</text>
<text dominant-baseline="central" text-anchor="end" style="font-size:12px;font-family:sans-serif;" transform="translate(184 505.3125)" fill="#B9B8CE">2025::5_0</text>
<text dominant-baseline="central" text-anchor="end" style="font-size:12px;font-family:sans-serif;" transform="translate(184 445.9375)" fill="#B9B8CE">2025::5_1</text>
<text dominant-baseline="central" text-anchor="end" style="font-size:12px;font-family:sans-serif;" transform="translate(184 386.5625)" fill="#B9B8CE">2025::6_0</text>
<text dominant-baseline="central" text-anchor="end" style="font-size:12px;font-family:sans-serif;" transform="translate(184 327.1875)" fill="#B9B8CE">2025::6_1</text>
<text dominant-baseline="central" text-anchor="end" style="font-size:12px;font-family:sans-serif;" transform="translate(184 267.8125)" fill="#B9B8CE">2025::7_0</text>
<text dominant-baseline="central" text-anchor="end" style="font-size:12px;font-family:sans-serif;" transform="translate(184 208.4375)" fill="#B9B8CE">2025::7_1</text>
<text dominant-baseline="central" text-anchor="end" style="font-size:12px;font-family:sans-serif;" transform="translate(184 149.0625)" fill="#B9B8CE">2025::8_0</text>
<text dominant-baseline="central" text-anchor="end" style="font-size:12px;font-family:sans-serif;" transform="translate(184 89.6875)" fill="#B9B8CE">2025::8_1</text>
<text dominant-baseline="central" text-anchor="middle" style="font-size:12px;font-family:sans-serif;" y="6" transform="translate(192 1018)" fill="#B9B8CE">0</text>
<text dominant-baseline="central" text-anchor="middle" style="font-size:12px;font-family:sans-serif;" y="6" transform="translate(384 1018)" fill="#B9B8CE">1</text>
<text dominant-baseline="central" text-anchor="middle" style="font-size:12px;font-family:sans-serif;" y="6" transform="translate(576 1018)" fill="#B9B8CE">2</text>
<text dominant-baseline="central" text-anchor="middle" style="font-size:12px;font-family:sans-serif;" y="6" transform="translate(768 1018)" fill="#B9B8CE">3</text>
<text dominant-baseline="central" text-anchor="middle" style="font-size:12px;font-family:sans-serif;" y="6" transform="translate(960 1018)" fill="#B9B8CE">4</text>
<text dominant-baseline="central" text-anchor="middle" style="font-size:12px;font-family:sans-serif;" y="6" transform="translate(1152 1018)" fill="#B9B8CE">5</text>
<text dominant-baseline="central" text-anchor="middle" style="font-size:12px;font-family:sans-serif;" y="6" transform="translate(1344 1018)" fill="#B9B8CE">6</text>
<text dominant-baseline="central" text-anchor="middle" style="font-size:12px;font-family:sans-serif;" y="6" transform="translate(1536 1018)" fill="#B9B8CE">7</text>
<text dominant-baseline="central" text-anchor="middle" style="font-size:12px;font-family:sans-serif;" y="6" transform="translate(1728 1018)" fill="#B9B8CE">8</text>
<path d="M192 959.8l852.4 0l0 41l-852.4 0Z" fill="#4992ff" ecmeta_series_index="0" ecmeta_data_index="0" ecmeta_ssr_type="chart" class="zr0-cls-1"></path>
<path d="M192 900.5l862 0l0 41l-862 0Z" fill="#4992ff" ecmeta_series_index="0" ecmeta_data_index="1" ecmeta_ssr_type="chart" class="zr0-cls-1"></path>
<path d="M192 841.1l550.7 0l0 41l-550.7 0Z" fill="#4992ff" ecmeta_series_index="0" ecmeta_data_index="2" ecmeta_ssr_type="chart" class="zr0-cls-1"></path>
<path d="M192 781.7l637.4 0l0 41l-637.4 0Z" fill="#4992ff" ecmeta_series_index="0" ecmeta_data_index="3" ecmeta_ssr_type="chart" class="zr0-cls-1"></path>
<path d="M192 722.3l1044 0l0 41l-1044 0Z" fill="#4992ff" ecmeta_series_index="0" ecmeta_data_index="4" ecmeta_ssr_type="chart" class="zr0-cls-1"></path>
<path d="M192 663l1087.3 0l0 41l-1087.3 0Z" fill="#4992ff" ecmeta_series_index="0" ecmeta_data_index="5" ecmeta_ssr_type="chart" class="zr0-cls-1"></path>
<path d="M192 603.6l963.3 0l0 41l-963.3 0Z" fill="#4992ff" ecmeta_series_index="0" ecmeta_data_index="6" ecmeta_ssr_type="chart" class="zr0-cls-1"></path>
<path d="M192 544.2l1265 0l0 41l-1265 0Z" fill="#4992ff" ecmeta_series_index="0" ecmeta_data_index="7" ecmeta_ssr_type="chart" class="zr0-cls-1"></path>
<path d="M192 484.8l966.8 0l0 41l-966.8 0Z" fill="#4992ff" ecmeta_series_index="0" ecmeta_data_index="8" ecmeta_ssr_type="chart" class="zr0-cls-1"></path>
<path d="M192 425.5l822.2 0l0 41l-822.2 0Z" fill="#4992ff" ecmeta_series_index="0" ecmeta_data_index="9" ecmeta_ssr_type="chart" class="zr0-cls-1"></path>
<path d="M192 366.1l910.9 0l0 41l-910.9 0Z" fill="#4992ff" ecmeta_series_index="0" ecmeta_data_index="10" ecmeta_ssr_type="chart" class="zr0-cls-1"></path>
<path d="M192 306.7l856.4 0l0 41l-856.4 0Z" fill="#4992ff" ecmeta_series_index="0" ecmeta_data_index="11" ecmeta_ssr_type="chart" class="zr0-cls-1"></path>
<path d="M192 247.3l880.6 0l0 41l-880.6 0Z" fill="#4992ff" ecmeta_series_index="0" ecmeta_data_index="12" ecmeta_ssr_type="chart" class="zr0-cls-1"></path>
<path d="M192 188l894.5 0l0 41l-894.5 0Z" fill="#4992ff" ecmeta_series_index="0" ecmeta_data_index="13" ecmeta_ssr_type="chart" class="zr0-cls-1"></path>
<path d="M192 128.6l1314.3 0l0 41l-1314.3 0Z" fill="#4992ff" ecmeta_series_index="0" ecmeta_data_index="14" ecmeta_ssr_type="chart" class="zr0-cls-1"></path>
<path d="M192 69.2l1422 0l0 41l-1422 0Z" fill="#4992ff" ecmeta_series_index="0" ecmeta_data_index="15" ecmeta_ssr_type="chart" class="zr0-cls-1"></path>
<style ><![CDATA[
.zr0-cls-0:hover {
pointer-events:none;
}
.zr0-cls-1:hover {
cursor:pointer;
fill:rgba(80,160,255,1);
}

]]>

</style>
</svg>