<svg width="1920" height="1080" xmlns="http://www.w3.org/2000/svg" xmlns:xlink="http://www.w3.org/1999/xlink" version="1.1" baseProfile="full" viewBox="0 0 1920 1080">
<rect width="1920" height="1080" x="0" y="0" fill="#100C2A"></rect>
<path d="M192.5 60L192.5 1010" fill="transparent" stroke="#484753" class="zr0-cls-0"></path>
<path d="M384.5 60L384.5 1010" fill="transparent" stroke="#484753" class="zr0-cls-0"></path>
<path d="M576.5 60L576.5 1010" fill="transparent" stroke="#484753" class="zr0-cls-0"></path>
<path d="M768.5 60L768.5 1010" fill="transparent" stroke="#484753" class="zr0-cls-0"></path>
<path d="M960.5 60L960.5 1010" fill="transparent" stroke="#484753" class="zr0-cls-0"></path>
<path d="M1152.5 60L1152.5 1010" fill="transparent" stroke="#484753" class="zr0-cls-0"></path>
<path d="M1344.5 60L1344.5 1010" fill="transparent" stroke="#484753" class="zr0-cls-0"></path>
<path d="M1536.5 60L1536.5 1010" fill="transparent" stroke="#484753" class="zr0-cls-0"></path>
<path d="M1728.5 60L1728.5 1010" fill="transparent" stroke="#484753" class="zr0-cls-0"></path>
<path d="M192.5 1010L192.5 60" fill="transparent" stroke="#B9B8CE" stroke-linecap="round" class="zr0-cls-0"></path>
<path d="M192 1010.5L187 1010.5" fill="transparent" stroke="#B9B8CE" class="zr0-cls-0"></path>
<path d="M192 957.5L187 957.5" fill="transparent" stroke="#B9B8CE" class="zr0-cls-0"></path>
<path d="M192 904.5L187 904.5" fill="transparent" stroke="#B9B8CE" class="zr0-cls-0"></path>
<path d="M192 851.5L187 851.5" fill="transparent" stroke="#B9B8CE" class="zr0-cls-0"></path>
<path d="M192 799.5L187 799.5" fill="transparent" stroke="#B9B8CE" class="zr0-cls-0"></path>
<path d="M192 746.5L187 746.5" fill="transparent" stroke="#B9B8CE" class="zr0-cls-0"></path>
<path d="M192 693.5L187 693.5" fill="transparent" stroke="#B9B8CE" class="zr0-cls-0"></path>
<path d="M192 640.5L187 640.5" fill="transparent" stroke="#B9B8CE" class="zr0-cls-0"></path>
<path d="M192 588.5L187 588.5" fill="transparent" stroke="#B9B8CE" class="zr0-cls-0"></path>
<path d="M192 535.5L187 535.5" fill="transparent" stroke="#B9B8CE" class="zr0-cls-0"></path>
<path d="M192 482.5L187 482.5" fill="transparent" stroke="#B9B8CE" class="zr0-cls-0"></path>
<path d="M192 429.5L187 429.5" fill="transparent" stroke="#B9B8CE" class="zr0-cls-0"></path>
<path d="M192 376.5L187 376.5" fill="transparent" stroke="#B9B8CE" class="zr0-cls-0"></path>
<path d="M192 324.5L187 324.5" fill="transparent" stroke="#B9B8CE" class="zr0-cls-0"></path>
<path d="M192 271.5L187 271.5" fill="transparent" stroke="#B9B8CE" class="zr0-cls-0"></path>
<path d="M192 218.5L187 218.5" fill="transparent" stroke="#B9B8CE" class="zr0-cls-0"></path>
<path d="M192 165.5L187 165.5" fill="transparent" stroke="#B9B8CE" class="zr0-cls-0"></path>
<path d="M192 113.5L187 113.5" fill="transparent" stroke="#B9B8CE" class="zr0-cls-0"></path>
<path d="M192 60.5L187 60.5" fill="transparent" stroke="#B9B8CE" class="zr0-cls-0"></path>
<text dominant-baseline="central" text-anchor="end" style="font-size:12px;font-family:sans-serif;" transform="translate(184 983.6111)" fill="#B9B8CE">2025::1_0</text>
<text dominant-baseline="central" text-anchor="end" style="font-size:12px;font-family:sans-serif;" transform="translate(184 930.8333)" fill="#B9B8CE">2025::1_1</text>
<text dominant-baseline="central" text-anchor="end" style="font-size:12px;font-family:sans-serif;" transform="translate(184 878.0556)" fill="#B9B8CE">2025::2_0</text>
<text dominant-baseline="central" text-anchor="end" style="font-size:12px;font-family:sans-serif;" transform="translate(184 825.2778)" fill="#B9B8CE">2025::2_1</text>
<text dominant-baseline="central" text-anchor="end" style="font-size:12px;font-family:sans-serif;" transform="translate(184 772.5)" fill="#B9B8CE">2025::3_0</text>
<text dominant-baseline="central" text-anchor="end" style="font-size:12px;font-family:sans-serif;" transform="translate(184 719.7222)" fill="#B9B8CE">2025::3_1</text>
<text dominant-baseline="central" text-anchor="end" style="font-size:12px;font-family:sans-serif;" transform="translate(184 666.9444)" fill="#B9B8CE">2025::4_0</text>
<text dominant-baseline="central" text-anchor="end" style="font-size:12px;font-family:sans-serif;" transform="translate(184 614.1667)" fill="#B9B8CE">2025::4_1</text>
<text dominant-baseline="central" text-anchor="end" style="font-size:12px;font-family:sans-serif;" transform="translate(184 561.3889)" fill="#B9B8CE">2025::5_0</text>
<text dominant-baseline="central" text-anchor="end" style="font-size:12px;font-family:sans-serif;" transform="translate(184 508.6111)" fill="#B9B8CE">2025::5_1</text>
<text dominant-baseline="central" text-anchor="end" style="font-size:12px;font-family:sans-serif;" transform="translate(184 455.8333)" fill="#B9B8CE">2025::6_0</text>
<text dominant-baseline="central" text-anchor="end" style="font-size:12px;font-family:sans-serif;" transform="translate(184 403.0556)" fill="#B9B8CE">2025::6_1</text>
<text dominant-baseline="central" text-anchor="end" style="font-size:12px;font-family:sans-serif;" transform="translate(184 350.2778)" fill="#B9B8CE">2025::7_0</text>
<text dominant-baseline="central" text-anchor="end" style="font-size:12px;font-family:sans-serif;" transform="translate(184 297.5)" fill="#B9B8CE">2025::7_1</text>
<text dominant-baseline="central" text-anchor="end" style="font-size:12px;font-family:sans-serif;" transform="translate(184 244.7222)" fill="#B9B8CE">2025::8_0</text>
<text dominant-baseline="central" text-anchor="end" style="font-size:12px;font-family:sans-serif;" transform="translate(184 191.9444)" fill="#B9B8CE">2025::8_1</text>
<text dominant-baseline="central" text-anchor="end" style="font-size:12px;font-family:sans-serif;" transform="translate(184 139.1667)" fill="#B9B8CE">2025::9_0</text>
<text dominant-baseline="central" text-anchor="end" style="font-size:12px;font-family:sans-serif;" transform="translate(184 86.3889)" fill="#B9B8CE">2025::9_1</text>
<text dominant-baseline="central" text-anchor="middle" style="font-size:12px;font-family:sans-serif;" y="6" transform="translate(192 1018)" fill="#B9B8CE">0</text>
<text dominant-baseline="central" text-anchor="middle" style="font-size:12px;font-family:sans-serif;" y="6" transform="translate(384 1018)" fill="#B9B8CE">1</text>
<text dominant-baseline="central" text-anchor="middle" style="font-size:12px;font-family:sans-serif;" y="6" transform="translate(576 1018)" fill="#B9B8CE">2</text>
<text dominant-baseline="central" text-anchor="middle" style="font-size:12px;font-family:sans-serif;" y="6" transform="translate(768 1018)" fill="#B9B8CE">3</text>
<text dominant-baseline="central" text-anchor="middle" style="font-size:12px;font-family:sans-serif;" y="6" transform="translate(960 1018)" fill="#B9B8CE">4</text>
<text dominant-baseline="central" text-anchor="middle" style="font-size:12px;font-family:sans-serif;" y="6" transform="translate(1152 1018)" fill="#B9B8CE">5</text>
<text dominant-baseline="central" text-anchor="middle" style="font-size:12px;font-family:sans-serif;" y="6" transform="translate(1344 1018)" fill="#B9B8CE">6</text>
<text dominant-baseline="central" text-anchor="middle" style="font-size:12px;font-family:sans-serif;" y="6" transform="translate(1536 1018)" fill="#B9B8CE">7</text>
<text dominant-baseline="central" text-anchor="middle" style="font-size:12px;font-family:sans-serif;" y="6" transform="translate(1728 1018)" fill="#B9B8CE">8</text>
<path d="M192 965.4l847.4 0l0 36.4l-847.4 0Z" fill="#4992ff" ecmeta_series_index="0" ecmeta_data_index="0" ecmeta_ssr_type="chart" class="zr0-cls-1"></path>
<path d="M192 912.6l865.4 0l0 36.4l-865.4 0Z" fill="#4992ff" ecmeta_series_index="0" ecmeta_data_index="1" ecmeta_ssr_type="chart" class="zr0-cls-1"></path>
<path d="M192 859.8l551.8 0l0 36.4l-551.8 0Z" fill="#4992ff" ecmeta_series_index="0" ecmeta_data_index="2" ecmeta_ssr_type="chart" class="zr0-cls-1"></path>
<path d="M192 807.1l642.3 0l0 36.4l-642.3 0Z" fill="#4992ff" ecmeta_series_index="0" ecmeta_data_index="3" ecmeta_ssr_type="chart" class="zr0-cls-1"></path>
<path d="M192 754.3l1043.1 0l0 36.4l-1043.1 0Z" fill="#4992ff" ecmeta_series_index="0" ecmeta_data_index="4" ecmeta_ssr_type="chart" class="zr0-cls-1"></path>
<path d="M192 701.5l1085.5 0l0 36.4l-1085.5 0Z" fill="#4992ff" ecmeta_series_index="0" ecmeta_data_index="5" ecmeta_ssr_type="chart" class="zr0-cls-1"></path>
<path d="M192 648.7l964.3 0l0 36.4l-964.3 0Z" fill="#4992ff" ecmeta_series_index="0" ecmeta_data_index="6" ecmeta_ssr_type="chart" class="zr0-cls-1"></path>
<path d="M192 596l1254.5 0l0 36.4l-1254.5 0Z" fill="#4992ff" ecmeta_series_index="0" ecmeta_data_index="7" ecmeta_ssr_type="chart" class="zr0-cls-1"></path>
<path d="M192 543.2l971.7 0l0 36.4l-971.7 0Z" fill="#4992ff" ecmeta_series_index="0" ecmeta_data_index="8" ecmeta_ssr_type="chart" class="zr0-cls-1"></path>
<path d="M192 490.4l819.2 0l0 36.4l-819.2 0Z" fill="#4992ff" ecmeta_series_index="0" ecmeta_data_index="9" ecmeta_ssr_type="chart" class="zr0-cls-1"></path>
<path d="M192 437.6l914.7 0l0 36.4l-914.7 0Z" fill="#4992ff" ecmeta_series_index="0" ecmeta_data_index="10" ecmeta_ssr_type="chart" class="zr0-cls-1"></path>
<path d="M192 384.8l866 0l0 36.4l-866 0Z" fill="#4992ff" ecmeta_series_index="0" ecmeta_data_index="11" ecmeta_ssr_type="chart" class="zr0-cls-1"></path>
<path d="M192 332.1l891 0l0 36.4l-891 0Z" fill="#4992ff" ecmeta_series_index="0" ecmeta_data_index="12" ecmeta_ssr_type="chart" class="zr0-cls-1"></path>
<path d="M192 279.3l886 0l0 36.4l-886 0Z" fill="#4992ff" ecmeta_series_index="0" ecmeta_data_index="13" ecmeta_ssr_type="chart" class="zr0-cls-1"></path>
<path d="M192 226.5l1313.1 0l0 36.4l-1313.1 0Z" fill="#4992ff" ecmeta_series_index="0" ecmeta_data_index="14" ecmeta_ssr_type="chart" class="zr0-cls-1"></path>
<path d="M192 173.7l1418.2 0l0 36.4l-1418.2 0Z" fill="#4992ff" ecmeta_series_index="0" ecmeta_data_index="15" ecmeta_ssr_type="chart" class="zr0-cls-1"></path>
<path d="M192 121l987.4 0l0 36.4l-987.4 0Z" fill="#4992ff" ecmeta_series_index="0" ecmeta_data_index="16" ecmeta_ssr_type="chart" class="zr0-cls-1"></path>
<path d="M192 68.2l763.1 0l0 36.4l-763.1 0Z" fill="#4992ff" ecmeta_series_index="0" ecmeta_data_index="17" ecmeta_ssr_type="chart" class="zr0-cls-1"></path>
<style ><![CDATA[
.zr0-cls-0:hover {
pointer-events:none;
}
.zr0-cls-1:hover {
cursor:pointer;
fill:rgba(80,160,255,1);
}

]]>

</style>
</svg>