<svg width="1920" height="1080" xmlns="http://www.w3.org/2000/svg" xmlns:xlink="http://www.w3.org/1999/xlink" version="1.1" baseProfile="full" viewBox="0 0 1920 1080">
<rect width="1920" height="1080" x="0" y="0" fill="#100C2A"></rect>
<path d="M192.5 60L192.5 1010" fill="transparent" stroke="#484753" class="zr0-cls-0"></path>
<path d="M411.5 60L411.5 1010" fill="transparent" stroke="#484753" class="zr0-cls-0"></path>
<path d="M631.5 60L631.5 1010" fill="transparent" stroke="#484753" class="zr0-cls-0"></path>
<path d="M850.5 60L850.5 1010" fill="transparent" stroke="#484753" class="zr0-cls-0"></path>
<path d="M1069.5 60L1069.5 1010" fill="transparent" stroke="#484753" class="zr0-cls-0"></path>
<path d="M1289.5 60L1289.5 1010" fill="transparent" stroke="#484753" class="zr0-cls-0"></path>
<path d="M1508.5 60L1508.5 1010" fill="transparent" stroke="#484753" class="zr0-cls-0"></path>
<path d="M1728.5 60L1728.5 1010" fill="transparent" stroke="#484753" class="zr0-cls-0"></path>
<path d="M192.5 1010L192.5 60" fill="transparent" stroke="#B9B8CE" stroke-linecap="round" class="zr0-cls-0"></path>
<path d="M192 1010.5L187 1010.5" fill="transparent" stroke="#B9B8CE" class="zr0-cls-0"></path>
<path d="M192 942.5L187 942.5" fill="transparent" stroke="#B9B8CE" class="zr0-cls-0"></path>
<path d="M192 874.5L187 874.5" fill="transparent" stroke="#B9B8CE" class="zr0-cls-0"></path>
<path d="M192 806.5L187 806.5" fill="transparent" stroke="#B9B8CE" class="zr0-cls-0"></path>
<path d="M192 738.5L187 738.5" fill="transparent" stroke="#B9B8CE" class="zr0-cls-0"></path>
<path d="M192 670.5L187 670.5" fill="transparent" stroke="#B9B8CE" class="zr0-cls-0"></path>
<path d="M192 603.5L187 603.5" fill="transparent" stroke="#B9B8CE" class="zr0-cls-0"></path>
<path d="M192 535.5L187 535.5" fill="transparent" stroke="#B9B8CE" class="zr0-cls-0"></path>
<path d="M192 467.5L187 467.5" fill="transparent" stroke="#B9B8CE" class="zr0-cls-0"></path>
<path d="M192 399.5L187 399.5" fill="transparent" stroke="#B9B8CE" class="zr0-cls-0"></path>
<path d="M192 331.5L187 331.5" fill="transparent" stroke="#B9B8CE" class="zr0-cls-0"></path>
<path d="M192 263.5L187 263.5" fill="transparent" stroke="#B9B8CE" class="zr0-cls-0"></path>
<path d="M192 195.5L187 195.5" fill="transparent" stroke="#B9B8CE" class="zr0-cls-0"></path>
<path d="M192 128.5L187 128.5" fill="transparent" stroke="#B9B8CE" class="zr0-cls-0"></path>
<path d="M192 60.5L187 60.5" fill="transparent" stroke="#B9B8CE" class="zr0-cls-0"></path>
<text dominant-baseline="central" text-anchor="end" style="font-size:12px;font-family:sans-serif;" transform="translate(184 976.0714)" fill="#B9B8CE">2025::1_0</text>
<text dominant-baseline="central" text-anchor="end" style="font-size:12px;font-family:sans-serif;" transform="translate(184 908.2143)" fill="#B9B8CE">2025::1_1</text>
<text dominant-baseline="central" text-anchor="end" style="font-size:12px;font-family:sans-serif;" transform="translate(184 840.3571)" fill="#B9B8CE">2025::2_0</text>
<text dominant-baseline="central" text-anchor="end" style="font-size:12px;font-family:sans-serif;" transform="translate(184 772.5)" fill="#B9B8CE">2025::2_1</text>
<text dominant-baseline="central" text-anchor="end" style="font-size:12px;font-family:sans-serif;" transform="translate(184 704.6429)" fill="#B9B8CE">2025::3_0</text>
<text dominant-baseline="central" text-anchor="end" style="font-size:12px;font-family:sans-serif;" transform="translate(184 636.7857)" fill="#B9B8CE">2025::3_1</text>
<text dominant-baseline="central" text-anchor="end" style="font-size:12px;font-family:sans-serif;" transform="translate(184 568.9286)" fill="#B9B8CE">2025::4_0</text>
<text dominant-baseline="central" text-anchor="end" style="font-size:12px;font-family:sans-serif;" transform="translate(184 501.0714)" fill="#B9B8CE">2025::4_1</text>
<text dominant-baseline="central" text-anchor="end" style="font-size:12px;font-family:sans-serif;" transform="translate(184 433.2143)" fill="#B9B8CE">2025::5_0</text>
<text dominant-baseline="central" text-anchor="end" style="font-size:12px;font-family:sans-serif;" transform="translate(184 365.3571)" fill="#B9B8CE">2025::5_1</text>
<text dominant-baseline="central" text-anchor="end" style="font-size:12px;font-family:sans-serif;" transform="translate(184 297.5)" fill="#B9B8CE">2025::6_0</text>
<text dominant-baseline="central" text-anchor="end" style="font-size:12px;font-family:sans-serif;" transform="translate(184 229.6429)" fill="#B9B8CE">2025::6_1</text>
<text dominant-baseline="central" text-anchor="end" style="font-size:12px;font-family:sans-serif;" transform="translate(184 161.7857)" fill="#B9B8CE">2025::7_0</text>
<text dominant-baseline="central" text-anchor="end" style="font-size:12px;font-family:sans-serif;" transform="translate(184 93.9286)" fill="#B9B8CE">2025::7_1</text>
<text dominant-baseline="central" text-anchor="middle" style="font-size:12px;font-family:sans-serif;" y="6" transform="translate(192 1018)" fill="#B9B8CE">0</text>
<text dominant-baseline="central" text-anchor="middle" style="font-size:12px;font-family:sans-serif;" y="6" transform="translate(411.4286 1018)" fill="#B9B8CE">1</text>
<text dominant-baseline="central" text-anchor="middle" style="font-size:12px;font-family:sans-serif;" y="6" transform="translate(630.8571 1018)" fill="#B9B8CE">2</text>
<text dominant-baseline="central" text-anchor="middle" style="font-size:12px;font-family:sans-serif;" y="6" transform="translate(850.2857 1018)" fill="#B9B8CE">3</text>
<text dominant-baseline="central" text-anchor="middle" style="font-size:12px;font-family:sans-serif;" y="6" transform="translate(1069.7143 1018)" fill="#B9B8CE">4</text>
<text dominant-baseline="central" text-anchor="middle" style="font-size:12px;font-family:sans-serif;" y="6" transform="translate(1289.1429 1018)" fill="#B9B8CE">5</text>
<text dominant-baseline="central" text-anchor="middle" style="font-size:12px;font-family:sans-serif;" y="6" transform="translate(1508.5714 1018)" fill="#B9B8CE">6</text>
<text dominant-baseline="central" text-anchor="middle" style="font-size:12px;font-family:sans-serif;" y="6" transform="translate(1728 1018)" fill="#B9B8CE">7</text>
<path d="M192 952.7l964.5 0l0 46.8l-964.5 0Z" fill="#4992ff" ecmeta_series_index="0" ecmeta_data_index="0" ecmeta_ssr_type="chart" class="zr0-cls-1"></path>
<path d="M192 884.8l983.2 0l0 46.8l-983.2 0Z" fill="#4992ff" ecmeta_series_index="0" ecmeta_data_index="1" ecmeta_ssr_type="chart" class="zr0-cls-1"></path>
<path d="M192 816.9l630.5 0l0 46.8l-630.5 0Z" fill="#4992ff" ecmeta_series_index="0" ecmeta_data_index="2" ecmeta_ssr_type="chart" class="zr0-cls-1"></path>
<path d="M192 749.1l731 0l0 46.8l-731 0Z" fill="#4992ff" ecmeta_series_index="0" ecmeta_data_index="3" ecmeta_ssr_type="chart" class="zr0-cls-1"></path>
<path d="M192 681.2l1191.3 0l0 46.8l-1191.3 0Z" fill="#4992ff" ecmeta_series_index="0" ecmeta_data_index="4" ecmeta_ssr_type="chart" class="zr0-cls-1"></path>
<path d="M192 613.4l1241.1 0l0 46.8l-1241.1 0Z" fill="#4992ff" ecmeta_series_index="0" ecmeta_data_index="5" ecmeta_ssr_type="chart" class="zr0-cls-1"></path>
<path d="M192 545.5l1095.3 0l0 46.8l-1095.3 0Z" fill="#4992ff" ecmeta_series_index="0" ecmeta_data_index="6" ecmeta_ssr_type="chart" class="zr0-cls-1"></path>
<path d="M192 477.7l1418.4 0l0 46.8l-1418.4 0Z" fill="#4992ff" ecmeta_series_index="0" ecmeta_data_index="7" ecmeta_ssr_type="chart" class="zr0-cls-1"></path>
<path d="M192 409.8l1099.8 0l0 46.8l-1099.8 0Z" fill="#4992ff" ecmeta_series_index="0" ecmeta_data_index="8" ecmeta_ssr_type="chart" class="zr0-cls-1"></path>
<path d="M192 341.9l938.5 0l0 46.8l-938.5 0Z" fill="#4992ff" ecmeta_series_index="0" ecmeta_data_index="9" ecmeta_ssr_type="chart" class="zr0-cls-1"></path>
<path d="M192 274.1l1037.6 0l0 46.8l-1037.6 0Z" fill="#4992ff" ecmeta_series_index="0" ecmeta_data_index="10" ecmeta_ssr_type="chart" class="zr0-cls-1"></path>
<path d="M192 206.2l1003.1 0l0 46.8l-1003.1 0Z" fill="#4992ff" ecmeta_series_index="0" ecmeta_data_index="11" ecmeta_ssr_type="chart" class="zr0-cls-1"></path>
<path d="M192 138.4l1008.6 0l0 46.8l-1008.6 0Z" fill="#4992ff" ecmeta_series_index="0" ecmeta_data_index="12" ecmeta_ssr_type="chart" class="zr0-cls-1"></path>
<path d="M192 70.5l1020.8 0l0 46.8l-1020.8 0Z" fill="#4992ff" ecmeta_series_index="0" ecmeta_data_index="13" ecmeta_ssr_type="chart" class="zr0-cls-1"></path>
<style ><![CDATA[
.zr0-cls-0:hover {
pointer-events:none;
}
.zr0-cls-1:hover {
cursor:pointer;
fill:rgba(80,160,255,1);
}

]]>

</style>
</svg>