<svg width="1920" height="1080" xmlns="http://www.w3.org/2000/svg" xmlns:xlink="http://www.w3.org/1999/xlink" version="1.1" baseProfile="full" viewBox="0 0 1920 1080">
<rect width="1920" height="1080" x="0" y="0" fill="#100C2A"></rect>
<path d="M192.5 60L192.5 1010" fill="transparent" stroke="#484753" class="zr0-cls-0"></path>
<path d="M411.5 60L411.5 1010" fill="transparent" stroke="#484753" class="zr0-cls-0"></path>
<path d="M631.5 60L631.5 1010" fill="transparent" stroke="#484753" class="zr0-cls-0"></path>
<path d="M850.5 60L850.5 1010" fill="transparent" stroke="#484753" class="zr0-cls-0"></path>
<path d="M1069.5 60L1069.5 1010" fill="transparent" stroke="#484753" class="zr0-cls-0"></path>
<path d="M1289.5 60L1289.5 1010" fill="transparent" stroke="#484753" class="zr0-cls-0"></path>
<path d="M1508.5 60L1508.5 1010" fill="transparent" stroke="#484753" class="zr0-cls-0"></path>
<path d="M1728.5 60L1728.5 1010" fill="transparent" stroke="#484753" class="zr0-cls-0"></path>
<path d="M192.5 1010L192.5 60" fill="transparent" stroke="#B9B8CE" stroke-linecap="round" class="zr0-cls-0"></path>
<path d="M192 1010.5L187 1010.5" fill="transparent" stroke="#B9B8CE" class="zr0-cls-0"></path>
<path d="M192 931.5L187 931.5" fill="transparent" stroke="#B9B8CE" class="zr0-cls-0"></path>
<path d="M192 851.5L187 851.5" fill="transparent" stroke="#B9B8CE" class="zr0-cls-0"></path>
<path d="M192 772.5L187 772.5" fill="transparent" stroke="#B9B8CE" class="zr0-cls-0"></path>
<path d="M192 693.5L187 693.5" fill="transparent" stroke="#B9B8CE" class="zr0-cls-0"></path>
<path d="M192 614.5L187 614.5" fill="transparent" stroke="#B9B8CE" class="zr0-cls-0"></path>
<path d="M192 535.5L187 535.5" fill="transparent" stroke="#B9B8CE" class="zr0-cls-0"></path>
<path d="M192 456.5L187 456.5" fill="transparent" stroke="#B9B8CE" class="zr0-cls-0"></path>
<path d="M192 376.5L187 376.5" fill="transparent" stroke="#B9B8CE" class="zr0-cls-0"></path>
<path d="M192 297.5L187 297.5" fill="transparent" stroke="#B9B8CE" class="zr0-cls-0"></path>
<path d="M192 218.5L187 218.5" fill="transparent" stroke="#B9B8CE" class="zr0-cls-0"></path>
<path d="M192 139.5L187 139.5" fill="transparent" stroke="#B9B8CE" class="zr0-cls-0"></path>
<path d="M192 60.5L187 60.5" fill="transparent" stroke="#B9B8CE" class="zr0-cls-0"></path>
<text dominant-baseline="central" text-anchor="end" style="font-size:12px;font-family:sans-serif;" transform="translate(184 970.4167)" fill="#B9B8CE">2025::1_0</text>
<text dominant-baseline="central" text-anchor="end" style="font-size:12px;font-family:sans-serif;" transform="translate(184 891.25)" fill="#B9B8CE">2025::1_1</text>
<text dominant-baseline="central" text-anchor="end" style="font-size:12px;font-family:sans-serif;" transform="translate(184 812.0833)" fill="#B9B8CE">2025::2_0</text>
<text dominant-baseline="central" text-anchor="end" style="font-size:12px;font-family:sans-serif;" transform="translate(184 732.9167)" fill="#B9B8CE">2025::2_1</text>
<text dominant-baseline="central" text-anchor="end" style="font-size:12px;font-family:sans-serif;" transform="translate(184 653.75)" fill="#B9B8CE">2025::3_0</text>
<text dominant-baseline="central" text-anchor="end" style="font-size:12px;font-family:sans-serif;" transform="translate(184 574.5833)" fill="#B9B8CE">2025::3_1</text>
<text dominant-baseline="central" text-anchor="end" style="font-size:12px;font-family:sans-serif;" transform="translate(184 495.4167)" fill="#B9B8CE">2025::4_0</text>
<text dominant-baseline="central" text-anchor="end" style="font-size:12px;font-family:sans-serif;" transform="translate(184 416.25)" fill="#B9B8CE">2025::4_1</text>
<text dominant-baseline="central" text-anchor="end" style="font-size:12px;font-family:sans-serif;" transform="translate(184 337.0833)" fill="#B9B8CE">2025::5_0</text>
<text dominant-baseline="central" text-anchor="end" style="font-size:12px;font-family:sans-serif;" transform="translate(184 257.9167)" fill="#B9B8CE">2025::5_1</text>
<text dominant-baseline="central" text-anchor="end" style="font-size:12px;font-family:sans-serif;" transform="translate(184 178.75)" fill="#B9B8CE">2025::6_0</text>
<text dominant-baseline="central" text-anchor="end" style="font-size:12px;font-family:sans-serif;" transform="translate(184 99.5833)" fill="#B9B8CE">2025::6_1</text>
<text dominant-baseline="central" text-anchor="middle" style="font-size:12px;font-family:sans-serif;" y="6" transform="translate(192 1018)" fill="#B9B8CE">0</text>
<text dominant-baseline="central" text-anchor="middle" style="font-size:12px;font-family:sans-serif;" y="6" transform="translate(411.4286 1018)" fill="#B9B8CE">1</text>
<text dominant-baseline="central" text-anchor="middle" style="font-size:12px;font-family:sans-serif;" y="6" transform="translate(630.8571 1018)" fill="#B9B8CE">2</text>
<text dominant-baseline="central" text-anchor="middle" style="font-size:12px;font-family:sans-serif;" y="6" transform="translate(850.2857 1018)" fill="#B9B8CE">3</text>
<text dominant-baseline="central" text-anchor="middle" style="font-size:12px;font-family:sans-serif;" y="6" transform="translate(1069.7143 1018)" fill="#B9B8CE">4</text>
<text dominant-baseline="central" text-anchor="middle" style="font-size:12px;font-family:sans-serif;" y="6" transform="translate(1289.1429 1018)" fill="#B9B8CE">5</text>
<text dominant-baseline="central" text-anchor="middle" style="font-size:12px;font-family:sans-serif;" y="6" transform="translate(1508.5714 1018)" fill="#B9B8CE">6</text>
<text dominant-baseline="central" text-anchor="middle" style="font-size:12px;font-family:sans-serif;" y="6" transform="translate(1728 1018)" fill="#B9B8CE">7</text>
<path d="M192 943.1l964.4 0l0 54.6l-964.4 0Z" fill="#4992ff" ecmeta_series_index="0" ecmeta_data_index="0" ecmeta_ssr_type="chart" class="zr0-cls-1"></path>
<path d="M192 863.9l984.1 0l0 54.6l-984.1 0Z" fill="#4992ff" ecmeta_series_index="0" ecmeta_data_index="1" ecmeta_ssr_type="chart" class="zr0-cls-1"></path>
<path d="M192 784.8l628 0l0 54.6l-628 0Z" fill="#4992ff" ecmeta_series_index="0" ecmeta_data_index="2" ecmeta_ssr_type="chart" class="zr0-cls-1"></path>
<path d="M192 705.6l730.6 0l0 54.6l-730.6 0Z" fill="#4992ff" ecmeta_series_index="0" ecmeta_data_index="3" ecmeta_ssr_type="chart" class="zr0-cls-1"></path>
<path d="M192 626.4l1190.9 0l0 54.6l-1190.9 0Z" fill="#4992ff" ecmeta_series_index="0" ecmeta_data_index="4" ecmeta_ssr_type="chart" class="zr0-cls-1"></path>
<path d="M192 547.3l1241.4 0l0 54.6l-1241.4 0Z" fill="#4992ff" ecmeta_series_index="0" ecmeta_data_index="5" ecmeta_ssr_type="chart" class="zr0-cls-1"></path>
<path d="M192 468.1l1099.2 0l0 54.6l-1099.2 0Z" fill="#4992ff" ecmeta_series_index="0" ecmeta_data_index="6" ecmeta_ssr_type="chart" class="zr0-cls-1"></path>
<path d="M192 388.9l1424.8 0l0 54.6l-1424.8 0Z" fill="#4992ff" ecmeta_series_index="0" ecmeta_data_index="7" ecmeta_ssr_type="chart" class="zr0-cls-1"></path>
<path d="M192 309.8l1103.3 0l0 54.6l-1103.3 0Z" fill="#4992ff" ecmeta_series_index="0" ecmeta_data_index="8" ecmeta_ssr_type="chart" class="zr0-cls-1"></path>
<path d="M192 230.6l933.3 0l0 54.6l-933.3 0Z" fill="#4992ff" ecmeta_series_index="0" ecmeta_data_index="9" ecmeta_ssr_type="chart" class="zr0-cls-1"></path>
<path d="M192 151.4l1044.8 0l0 54.6l-1044.8 0Z" fill="#4992ff" ecmeta_series_index="0" ecmeta_data_index="10" ecmeta_ssr_type="chart" class="zr0-cls-1"></path>
<path d="M192 72.3l988.4 0l0 54.6l-988.4 0Z" fill="#4992ff" ecmeta_series_index="0" ecmeta_data_index="11" ecmeta_ssr_type="chart" class="zr0-cls-1"></path>
<style ><![CDATA[
.zr0-cls-0:hover {
pointer-events:none;
}
.zr0-cls-1:hover {
cursor:pointer;
fill:rgba(80,160,255,1);
}

]]>

</style>
</svg>